<?xml version="1.0" encoding="UTF-8"?>
<svg version="1.1" xmlns="http://www.w3.org/2000/svg" width="500" height="500">
<path d="M0 0 C0.7573645 -0.0033284 1.514729 -0.0066568 2.29504395 -0.01008606 C3.89525755 -0.01513013 5.49548158 -0.01749517 7.09570312 -0.01733398 C9.49627988 -0.0194997 11.89638062 -0.03762436 14.296875 -0.05664062 C23.67220042 -0.09068118 32.81495218 0.22698774 42.03125 2.16796875 C43.6956338 3.83235255 43.16129306 5.82280817 43.1640625 8.109375 C43.16607666 9.15746338 43.16809082 10.20555176 43.17016602 11.28540039 C43.16557373 12.42227295 43.16098145 13.55914551 43.15625 14.73046875 C43.15226196 16.4638147 43.15226196 16.4638147 43.14819336 18.23217773 C43.10431459 26.40418159 42.9163155 34.56482902 42.59375 42.73046875 C42.53501709 44.28133179 42.53501709 44.28133179 42.47509766 45.86352539 C42.41201416 47.28459595 42.41201416 47.28459595 42.34765625 48.734375 C42.29266968 49.9864978 42.29266968 49.9864978 42.23657227 51.26391602 C42.03125 53.16796875 42.03125 53.16796875 41.03125 54.16796875 C37.93941337 54.29142817 34.86652385 54.35418284 31.7734375 54.37890625 C29.84895008 54.40699235 27.92447104 54.43565691 26 54.46484375 C22.9586628 54.50599586 19.91747894 54.54287104 16.87597656 54.56933594 C13.94563161 54.59706188 11.01600351 54.64295444 8.0859375 54.69140625 C7.18463104 54.69465912 6.28332458 54.69791199 5.35470581 54.70126343 C-0.15422738 54.80773844 -4.09991677 55.5247515 -8.96875 58.16796875 C-12.27032094 62.46001097 -13.07193144 66.53340338 -13.17407227 71.84472656 C-13.19425415 72.77816895 -13.21443604 73.71161133 -13.23522949 74.67333984 C-13.25170532 75.64609863 -13.26818115 76.61885742 -13.28515625 77.62109375 C-13.30380737 78.52134277 -13.3224585 79.4215918 -13.3416748 80.34912109 C-13.40986584 83.70530579 -13.47008256 87.0616487 -13.53125 90.41796875 C-13.675625 97.92546875 -13.82 105.43296875 -13.96875 113.16796875 C4.84125 113.16796875 23.65125 113.16796875 43.03125 113.16796875 C43.03125 132.76263707 43.03125 132.76263707 42.62890625 139.6328125 C42.58688583 140.40307266 42.54486542 141.17333282 42.50157166 141.9669342 C42.41390929 143.55189678 42.32398137 145.13673581 42.23168945 146.72143555 C42.09084081 149.15574874 41.96009191 151.59047699 41.83007812 154.02539062 C41.74277486 155.5820643 41.65490692 157.13870644 41.56640625 158.6953125 C41.52781998 159.41911606 41.4892337 160.14291962 41.44947815 160.88865662 C41.14636261 165.93774354 41.14636261 165.93774354 40.03125 168.16796875 C22.21125 168.16796875 4.39125 168.16796875 -13.96875 168.16796875 C-13.96351318 172.51968262 -13.95827637 176.87139648 -13.95288086 181.35498047 C-13.93634389 195.70003454 -13.9252275 210.04508897 -13.91693783 224.39015007 C-13.91177624 233.09132243 -13.90473615 241.79248577 -13.89331055 250.49365234 C-13.88335953 258.07545036 -13.87689557 265.65724185 -13.87466151 273.23904622 C-13.87335511 277.25547094 -13.87027374 281.27187699 -13.86301994 285.28829575 C-13.85625315 289.06551932 -13.85413439 292.84271646 -13.85564232 296.61994553 C-13.85536629 298.0091313 -13.85336506 299.39831792 -13.84954453 300.78749847 C-13.84459709 302.67854682 -13.84635485 304.56960923 -13.84849548 306.46066284 C-13.84757369 307.52072477 -13.8466519 308.58078671 -13.84570217 309.67297173 C-13.96875 312.16796875 -13.96875 312.16796875 -14.96875 314.16796875 C-33.77875 314.16796875 -52.58875 314.16796875 -71.96875 314.16796875 C-71.96875 265.98796875 -71.96875 217.80796875 -71.96875 168.16796875 C-84.50875 168.16796875 -97.04875 168.16796875 -109.96875 168.16796875 C-110.96875 167.16796875 -110.96875 167.16796875 -111.08900452 164.99766541 C-111.08678391 164.04058182 -111.08456329 163.08349823 -111.08227539 162.09741211 C-111.08219986 161.01636703 -111.08212433 159.93532196 -111.08204651 158.82151794 C-111.07688522 157.64549515 -111.07172394 156.46947235 -111.06640625 155.2578125 C-111.0649913 154.06064102 -111.06357635 152.86346954 -111.06211853 151.63002014 C-111.05649979 147.78847809 -111.04394411 143.94699332 -111.03125 140.10546875 C-111.02623741 137.50846438 -111.02167409 134.9114591 -111.01757812 132.31445312 C-111.00737313 125.93225159 -110.98780136 119.55017465 -110.96875 113.16796875 C-98.09875 113.16796875 -85.22875 113.16796875 -71.96875 113.16796875 C-72.01515625 109.29949219 -72.0615625 105.43101562 -72.109375 101.4453125 C-72.14066933 97.65227568 -72.16490088 93.85925386 -72.18847656 90.06616211 C-72.20845409 87.45248865 -72.23564557 84.83885909 -72.27050781 82.2253418 C-72.56672206 59.42991274 -71.08975406 41.26762256 -56.484375 22.71484375 C-55.98421875 22.204375 -55.4840625 21.69390625 -54.96875 21.16796875 C-54.30875 21.16796875 -53.64875 21.16796875 -52.96875 21.16796875 C-52.96875 20.50796875 -52.96875 19.84796875 -52.96875 19.16796875 C-52.30875 19.16796875 -51.64875 19.16796875 -50.96875 19.16796875 C-50.96875 18.50796875 -50.96875 17.84796875 -50.96875 17.16796875 C-48.85202313 15.60827526 -46.75457382 14.18594225 -44.53125 12.79296875 C-43.88671875 12.38739746 -43.2421875 11.98182617 -42.578125 11.56396484 C-33.30828124 5.8167546 -24.73805656 3.15012717 -13.96875 1.16796875 C-12.62719849 0.90669189 -12.62719849 0.90669189 -11.25854492 0.64013672 C-7.49222255 0.09957513 -3.79579288 0.00592791 0 0 Z " fill="#070707" transform="translate(283.96875,92.83203125)"/>
<path d="M0 0 C1.37453198 -0.05498128 2.74973578 -0.09322822 4.125 -0.125 C5.27355469 -0.15980469 5.27355469 -0.15980469 6.4453125 -0.1953125 C9.52446177 0.04009647 12.11205813 0.93690256 15 2 C15.10440033 15.19620212 15.09287141 28.37466887 14.5625 41.5625 C14.52326416 42.59632813 14.48402832 43.63015625 14.44360352 44.6953125 C14.40162842 45.64277344 14.35965332 46.59023437 14.31640625 47.56640625 C14.27974854 48.40115479 14.24309082 49.23590332 14.20532227 50.09594727 C14 52 14 52 13 53 C11.64905018 53.09268999 10.29332909 53.11747326 8.93920898 53.11352539 C8.07839218 53.11344986 7.21757538 53.11337433 6.33067322 53.11329651 C5.39526199 53.10813522 4.45985077 53.10297394 3.49609375 53.09765625 C2.54307877 53.0962413 1.59006378 53.09482635 0.60816956 53.09336853 C-2.44875165 53.08775152 -5.50560077 53.07519616 -8.5625 53.0625 C-10.62955624 53.05748719 -12.69661362 53.05292391 -14.76367188 53.04882812 C-19.84247588 53.03777656 -24.9212257 53.02050055 -30 53 C-25.80796675 50.64339476 -22.00329603 50.7444946 -17.296875 50.8046875 C-16.1823999 50.80770874 -16.1823999 50.80770874 -15.04541016 50.81079102 C-12.28021029 50.82122467 -9.5150987 50.84914727 -6.75 50.875 C2.53125 50.936875 2.53125 50.936875 12 51 C12.33 34.83 12.66 18.66 13 2 C8.71 1.67 4.42 1.34 0 1 C0 0.67 0 0.34 0 0 Z " fill="#ADADAD" transform="translate(312,94)"/>
<path d="M0 0 C0.66 0.33 1.32 0.66 2 1 C1.09515208 2.15518918 0.1755794 3.29885406 -0.75 4.4375 C-1.26046875 5.07558594 -1.7709375 5.71367188 -2.296875 6.37109375 C-4.19667629 8.18810554 -5.43586908 8.60423197 -8 9 C-8 8.34 -8 7.68 -8 7 C-7.34 7 -6.68 7 -6 7 C-6 6.34 -6 5.68 -6 5 C-5.34 5 -4.68 5 -4 5 C-4 4.34 -4 3.68 -4 3 C-2 1.375 -2 1.375 0 0 Z " fill="#818181" transform="translate(237,107)"/>
<path d="M0 0 C0 4.61538462 0 4.61538462 -1 7 C-3.5625 8.25 -3.5625 8.25 -6 9 C-4.68775452 5.06326356 -3.08089673 2.77280706 0 0 Z " fill="#8D8D8D" transform="translate(228,116)"/>
</svg>
