<?xml version="1.0" encoding="UTF-8"?>
<svg xmlns="http://www.w3.org/2000/svg" xmlns:xlink="http://www.w3.org/1999/xlink" width="280px" height="64px" viewBox="0 0 279 64" version="1.1">
<g id="surface1">
<path style=" stroke:none;fill-rule:nonzero;fill:rgb(92.156863%,38.431373%,17.647059%);fill-opacity:1;" d="M 14.480469 13.101562 C 14.585938 13.101562 14.695312 13.101562 14.804688 13.101562 C 14.984375 13.101562 14.984375 13.101562 15.167969 13.101562 C 15.292969 13.101562 15.417969 13.101562 15.546875 13.101562 C 15.972656 13.101562 16.398438 13.101562 16.824219 13.101562 C 17.128906 13.101562 17.429688 13.101562 17.734375 13.101562 C 18.476562 13.097656 19.21875 13.097656 19.960938 13.097656 C 20.5625 13.097656 21.167969 13.097656 21.769531 13.097656 C 23.484375 13.097656 25.199219 13.097656 26.914062 13.097656 C 27.007812 13.097656 27.097656 13.097656 27.195312 13.097656 C 27.332031 13.097656 27.332031 13.097656 27.476562 13.097656 C 28.972656 13.097656 30.464844 13.09375 31.960938 13.09375 C 33.5 13.089844 35.039062 13.089844 36.574219 13.089844 C 37.4375 13.089844 38.300781 13.089844 39.164062 13.089844 C 39.976562 13.085938 40.789062 13.089844 41.601562 13.089844 C 41.898438 13.089844 42.195312 13.089844 42.492188 13.089844 C 46.644531 13.078125 50.785156 13.359375 53.96875 16.34375 C 56.433594 18.90625 56.789062 22.355469 56.78125 25.742188 C 56.78125 26.003906 56.78125 26.265625 56.785156 26.527344 C 56.785156 27.230469 56.785156 27.9375 56.785156 28.640625 C 56.785156 29.234375 56.785156 29.824219 56.785156 30.414062 C 56.789062 31.804688 56.789062 33.195312 56.785156 34.589844 C 56.785156 36.023438 56.785156 37.457031 56.789062 38.890625 C 56.792969 40.125 56.792969 41.363281 56.792969 42.597656 C 56.792969 43.332031 56.792969 44.070312 56.792969 44.804688 C 56.796875 45.496094 56.796875 46.1875 56.792969 46.878906 C 56.792969 47.128906 56.792969 47.382812 56.792969 47.636719 C 56.796875 47.984375 56.792969 48.328125 56.792969 48.675781 C 56.792969 48.773438 56.796875 48.875 56.796875 48.976562 C 56.789062 49.664062 56.636719 50.070312 56.242188 50.636719 C 55.855469 50.828125 55.4375 50.777344 55.011719 50.78125 C 54.910156 50.78125 54.808594 50.78125 54.703125 50.78125 C 54.363281 50.785156 54.027344 50.785156 53.6875 50.789062 C 53.574219 50.789062 53.457031 50.789062 53.339844 50.789062 C 52.730469 50.792969 52.121094 50.792969 51.507812 50.792969 C 50.878906 50.796875 50.25 50.800781 49.617188 50.804688 C 49.132812 50.808594 48.648438 50.808594 48.164062 50.808594 C 47.933594 50.808594 47.699219 50.8125 47.46875 50.8125 C 47.140625 50.816406 46.816406 50.816406 46.492188 50.816406 C 46.347656 50.820312 46.347656 50.820312 46.199219 50.820312 C 45.761719 50.816406 45.484375 50.773438 45.101562 50.546875 C 44.597656 49.996094 44.566406 49.441406 44.570312 48.71875 C 44.570312 48.625 44.566406 48.53125 44.566406 48.433594 C 44.566406 48.121094 44.566406 47.808594 44.566406 47.496094 C 44.566406 47.273438 44.566406 47.046875 44.566406 46.824219 C 44.5625 46.339844 44.5625 45.855469 44.5625 45.375 C 44.5625 44.609375 44.5625 43.847656 44.558594 43.082031 C 44.550781 41.183594 44.546875 39.285156 44.546875 37.386719 C 44.542969 35.914062 44.542969 34.4375 44.535156 32.964844 C 44.53125 32.203125 44.53125 31.445312 44.53125 30.6875 C 44.53125 30.214844 44.53125 29.738281 44.527344 29.265625 C 44.527344 29.046875 44.527344 28.828125 44.527344 28.609375 C 44.527344 28.3125 44.527344 28.011719 44.527344 27.710938 C 44.527344 27.625 44.527344 27.539062 44.527344 27.453125 C 44.519531 26.804688 44.359375 26.335938 44.109375 25.746094 C 44.074219 25.652344 44.035156 25.554688 43.996094 25.457031 C 43.820312 25.1875 43.671875 25.132812 43.375 25.011719 C 43.238281 24.949219 43.097656 24.886719 42.953125 24.820312 C 42.355469 24.578125 41.839844 24.503906 41.195312 24.503906 C 41.054688 24.503906 40.914062 24.503906 40.765625 24.5 C 40.613281 24.5 40.457031 24.5 40.300781 24.5 C 40.132812 24.5 39.96875 24.5 39.804688 24.5 C 39.355469 24.496094 38.910156 24.496094 38.460938 24.496094 C 38.179688 24.496094 37.902344 24.496094 37.621094 24.496094 C 36.746094 24.492188 35.867188 24.492188 34.992188 24.492188 C 33.980469 24.492188 32.96875 24.488281 31.960938 24.484375 C 31.175781 24.484375 30.394531 24.480469 29.613281 24.480469 C 29.144531 24.480469 28.679688 24.480469 28.210938 24.476562 C 27.773438 24.476562 27.335938 24.476562 26.894531 24.476562 C 26.65625 24.476562 26.421875 24.476562 26.183594 24.472656 C 25.257812 24.476562 24.457031 24.507812 23.726562 25.140625 C 23.195312 26.097656 23.234375 27.269531 23.203125 28.335938 C 23.199219 28.476562 23.195312 28.617188 23.191406 28.761719 C 23.179688 29.105469 23.167969 29.449219 23.15625 29.792969 C 23.226562 29.792969 23.292969 29.792969 23.359375 29.792969 C 24.992188 29.785156 26.625 29.777344 28.253906 29.773438 C 29.042969 29.773438 29.832031 29.769531 30.621094 29.765625 C 31.382812 29.761719 32.144531 29.757812 32.90625 29.757812 C 33.195312 29.757812 33.484375 29.757812 33.777344 29.753906 C 34.183594 29.75 34.589844 29.75 34.996094 29.75 C 35.117188 29.75 35.238281 29.75 35.359375 29.746094 C 36.03125 29.75 36.507812 29.785156 37.003906 30.285156 C 37.039062 30.921875 37.042969 31.5625 37.046875 32.203125 C 37.050781 32.417969 37.050781 32.636719 37.058594 32.851562 C 37.0625 33.164062 37.066406 33.472656 37.066406 33.785156 C 37.070312 33.878906 37.074219 33.976562 37.078125 34.074219 C 37.074219 34.503906 37.054688 34.757812 36.773438 35.089844 C 36.21875 35.410156 35.734375 35.375 35.105469 35.367188 C 34.976562 35.367188 34.847656 35.367188 34.714844 35.367188 C 34.289062 35.367188 33.863281 35.363281 33.4375 35.359375 C 33.140625 35.355469 32.84375 35.355469 32.550781 35.355469 C 31.769531 35.355469 30.992188 35.347656 30.214844 35.34375 C 29.421875 35.339844 28.625 35.335938 27.832031 35.335938 C 26.273438 35.328125 24.714844 35.320312 23.15625 35.308594 C 23.171875 35.839844 23.1875 36.367188 23.203125 36.898438 C 23.207031 37.046875 23.210938 37.195312 23.214844 37.347656 C 23.222656 38.800781 23.222656 38.800781 23.808594 40.085938 C 24.347656 40.496094 24.789062 40.613281 25.460938 40.617188 C 25.601562 40.617188 25.738281 40.617188 25.882812 40.621094 C 26.109375 40.621094 26.109375 40.621094 26.34375 40.621094 C 26.585938 40.621094 26.824219 40.625 27.066406 40.628906 C 27.660156 40.632812 28.25 40.636719 28.84375 40.636719 C 33.011719 40.660156 37.328125 40.839844 40.800781 43.402344 C 40.882812 43.460938 40.960938 43.515625 41.046875 43.578125 C 42.898438 45.019531 43.699219 47.34375 44.054688 49.582031 C 44.128906 50.226562 44.128906 50.226562 44.109375 50.511719 C 43.8125 50.8125 43.652344 50.789062 43.246094 50.792969 C 43.160156 50.789062 43.074219 50.789062 42.984375 50.789062 C 42.84375 50.789062 42.84375 50.789062 42.703125 50.789062 C 42.394531 50.792969 42.085938 50.792969 41.773438 50.789062 C 41.554688 50.789062 41.332031 50.792969 41.109375 50.792969 C 40.507812 50.792969 39.902344 50.792969 39.300781 50.792969 C 38.667969 50.789062 38.035156 50.792969 37.402344 50.792969 C 36.339844 50.792969 35.273438 50.792969 34.210938 50.789062 C 32.984375 50.789062 31.757812 50.789062 30.53125 50.792969 C 29.476562 50.792969 28.421875 50.792969 27.371094 50.792969 C 26.742188 50.792969 26.113281 50.792969 25.484375 50.792969 C 24.890625 50.792969 24.296875 50.792969 23.703125 50.789062 C 23.488281 50.789062 23.269531 50.789062 23.054688 50.792969 C 20.496094 50.796875 17.792969 50.628906 15.828125 48.765625 C 13.703125 46.484375 13.6875 43.5 13.695312 40.5625 C 13.695312 40.265625 13.695312 39.96875 13.695312 39.667969 C 13.695312 39.027344 13.695312 38.386719 13.699219 37.746094 C 13.699219 36.824219 13.699219 35.898438 13.699219 34.972656 C 13.699219 33.46875 13.703125 31.96875 13.703125 30.464844 C 13.707031 29.007812 13.707031 27.550781 13.710938 26.09375 C 13.710938 26.003906 13.710938 25.914062 13.710938 25.820312 C 13.710938 25.367188 13.710938 24.914062 13.710938 24.464844 C 13.714844 20.722656 13.71875 16.980469 13.722656 13.242188 C 14.007812 13.101562 14.164062 13.101562 14.480469 13.101562 Z M 14.480469 13.101562 "/>
<path style=" stroke:none;fill-rule:nonzero;fill:rgb(17.647059%,17.647059%,18.039216%);fill-opacity:1;" d="M 13.722656 24.152344 C 13.84375 24.214844 13.84375 24.214844 13.96875 24.277344 C 14.316406 24.289062 14.660156 24.296875 15.007812 24.300781 C 15.117188 24.300781 15.222656 24.304688 15.335938 24.304688 C 15.691406 24.308594 16.046875 24.3125 16.40625 24.316406 C 16.652344 24.316406 16.898438 24.320312 17.144531 24.324219 C 17.796875 24.328125 18.445312 24.335938 19.097656 24.339844 C 19.761719 24.347656 20.425781 24.355469 21.089844 24.359375 C 22.390625 24.375 23.695312 24.386719 24.996094 24.398438 C 24.886719 24.453125 24.886719 24.453125 24.773438 24.507812 C 24.089844 24.855469 23.675781 25.136719 23.402344 25.871094 C 23.253906 26.679688 23.238281 27.492188 23.210938 28.3125 C 23.203125 28.527344 23.203125 28.527344 23.195312 28.746094 C 23.183594 29.09375 23.171875 29.445312 23.15625 29.792969 C 23.257812 29.792969 23.257812 29.792969 23.359375 29.792969 C 24.992188 29.785156 26.625 29.777344 28.253906 29.773438 C 29.042969 29.773438 29.832031 29.769531 30.621094 29.765625 C 31.382812 29.761719 32.144531 29.757812 32.90625 29.757812 C 33.195312 29.757812 33.484375 29.757812 33.777344 29.753906 C 34.183594 29.75 34.589844 29.75 34.996094 29.75 C 35.175781 29.75 35.175781 29.75 35.359375 29.746094 C 36.03125 29.75 36.507812 29.785156 37.003906 30.285156 C 37.039062 30.921875 37.042969 31.5625 37.046875 32.203125 C 37.050781 32.417969 37.050781 32.636719 37.058594 32.851562 C 37.0625 33.164062 37.066406 33.472656 37.066406 33.785156 C 37.070312 33.878906 37.074219 33.976562 37.078125 34.074219 C 37.074219 34.503906 37.054688 34.757812 36.773438 35.089844 C 36.21875 35.410156 35.734375 35.375 35.105469 35.367188 C 34.976562 35.367188 34.847656 35.367188 34.714844 35.367188 C 34.289062 35.367188 33.863281 35.363281 33.4375 35.359375 C 33.140625 35.355469 32.84375 35.355469 32.550781 35.355469 C 31.769531 35.355469 30.992188 35.347656 30.214844 35.34375 C 29.421875 35.339844 28.625 35.335938 27.832031 35.335938 C 26.273438 35.328125 24.714844 35.320312 23.15625 35.308594 C 23.171875 35.839844 23.1875 36.367188 23.203125 36.898438 C 23.207031 37.046875 23.210938 37.195312 23.214844 37.347656 C 23.222656 38.800781 23.222656 38.800781 23.808594 40.085938 C 24.347656 40.496094 24.789062 40.613281 25.460938 40.617188 C 25.601562 40.617188 25.738281 40.617188 25.882812 40.621094 C 26.109375 40.621094 26.109375 40.621094 26.34375 40.621094 C 26.585938 40.621094 26.824219 40.625 27.066406 40.628906 C 27.660156 40.632812 28.25 40.636719 28.84375 40.636719 C 33.011719 40.660156 37.328125 40.839844 40.800781 43.402344 C 40.882812 43.460938 40.960938 43.515625 41.046875 43.578125 C 42.898438 45.019531 43.699219 47.34375 44.054688 49.582031 C 44.128906 50.226562 44.128906 50.226562 44.109375 50.511719 C 43.8125 50.8125 43.652344 50.789062 43.246094 50.792969 C 43.160156 50.789062 43.074219 50.789062 42.984375 50.789062 C 42.84375 50.789062 42.84375 50.789062 42.703125 50.789062 C 42.394531 50.792969 42.085938 50.792969 41.773438 50.789062 C 41.554688 50.789062 41.332031 50.792969 41.109375 50.792969 C 40.507812 50.792969 39.902344 50.792969 39.300781 50.792969 C 38.667969 50.789062 38.035156 50.792969 37.402344 50.792969 C 36.339844 50.792969 35.273438 50.792969 34.210938 50.789062 C 32.984375 50.789062 31.757812 50.789062 30.53125 50.792969 C 29.476562 50.792969 28.421875 50.792969 27.371094 50.792969 C 26.742188 50.792969 26.113281 50.792969 25.484375 50.792969 C 24.890625 50.792969 24.296875 50.792969 23.703125 50.789062 C 23.488281 50.789062 23.269531 50.789062 23.054688 50.792969 C 20.496094 50.796875 17.792969 50.628906 15.828125 48.765625 C 13.980469 46.78125 13.683594 44.171875 13.695312 41.566406 C 13.695312 41.375 13.695312 41.183594 13.695312 40.992188 C 13.695312 40.480469 13.695312 39.964844 13.699219 39.453125 C 13.699219 38.914062 13.699219 38.375 13.699219 37.835938 C 13.703125 36.816406 13.703125 35.800781 13.707031 34.78125 C 13.707031 33.621094 13.710938 32.464844 13.710938 31.304688 C 13.714844 28.921875 13.71875 26.535156 13.722656 24.152344 Z M 13.722656 24.152344 "/>
<path style=" stroke:none;fill-rule:nonzero;fill:rgb(94.901961%,56.470591%,12.54902%);fill-opacity:1;" d="M 14.476562 13.105469 C 14.585938 13.101562 14.691406 13.101562 14.800781 13.101562 C 14.921875 13.101562 15.039062 13.105469 15.160156 13.105469 C 15.347656 13.105469 15.347656 13.105469 15.539062 13.105469 C 15.964844 13.101562 16.386719 13.105469 16.808594 13.105469 C 17.109375 13.105469 17.410156 13.105469 17.714844 13.105469 C 18.363281 13.105469 19.015625 13.105469 19.667969 13.105469 C 20.609375 13.105469 21.550781 13.105469 22.492188 13.105469 C 24.019531 13.109375 25.546875 13.109375 27.074219 13.109375 C 28.558594 13.109375 30.042969 13.113281 31.527344 13.113281 C 31.617188 13.113281 31.710938 13.113281 31.804688 13.113281 C 32.527344 13.113281 33.25 13.113281 33.972656 13.113281 C 37.515625 13.113281 41.058594 13.117188 44.601562 13.117188 C 44.601562 17.609375 44.601562 22.101562 44.601562 26.726562 C 44.519531 26.566406 44.4375 26.402344 44.355469 26.238281 C 44.269531 26.109375 44.183594 25.984375 44.09375 25.855469 C 43.867188 25.5 43.867188 25.5 43.867188 25.257812 C 42.804688 24.703125 41.953125 24.503906 40.773438 24.503906 C 40.65625 24.503906 40.542969 24.503906 40.425781 24.503906 C 40.042969 24.5 39.660156 24.5 39.273438 24.5 C 39 24.5 38.726562 24.5 38.449219 24.496094 C 37.859375 24.496094 37.265625 24.492188 36.675781 24.492188 C 35.738281 24.492188 34.804688 24.488281 33.867188 24.484375 C 32.558594 24.480469 31.246094 24.476562 29.9375 24.472656 C 29.851562 24.472656 29.769531 24.472656 29.683594 24.472656 C 28.503906 24.46875 27.324219 24.464844 26.140625 24.464844 C 26.058594 24.464844 25.976562 24.460938 25.890625 24.460938 C 25.804688 24.460938 25.722656 24.460938 25.636719 24.460938 C 24.253906 24.457031 22.867188 24.453125 21.484375 24.449219 C 20.550781 24.445312 19.621094 24.445312 18.691406 24.441406 C 18.113281 24.441406 17.535156 24.4375 16.957031 24.4375 C 16.6875 24.4375 16.417969 24.4375 16.152344 24.433594 C 15.785156 24.433594 15.417969 24.433594 15.054688 24.433594 C 14.945312 24.433594 14.839844 24.433594 14.726562 24.433594 C 13.996094 24.425781 13.996094 24.425781 13.722656 24.152344 C 13.699219 23.804688 13.691406 23.472656 13.695312 23.125 C 13.695312 23.015625 13.695312 22.910156 13.695312 22.800781 C 13.695312 22.449219 13.699219 22.09375 13.699219 21.742188 C 13.699219 21.496094 13.699219 21.253906 13.699219 21.007812 C 13.703125 20.367188 13.703125 19.722656 13.707031 19.078125 C 13.710938 18.421875 13.710938 17.765625 13.710938 17.109375 C 13.714844 15.820312 13.71875 14.53125 13.722656 13.242188 C 14.003906 13.101562 14.164062 13.105469 14.476562 13.105469 Z M 14.476562 13.105469 "/>
<path style=" stroke:none;fill-rule:nonzero;fill:rgb(92.156863%,38.431373%,18.039216%);fill-opacity:1;" d="M 122.898438 12.996094 C 124.757812 12.996094 126.617188 12.996094 128.535156 12.996094 C 128.539062 15.5 128.542969 18.003906 128.546875 20.507812 C 128.546875 21.667969 128.550781 22.832031 128.550781 23.996094 C 128.554688 25.007812 128.554688 26.023438 128.558594 27.039062 C 128.558594 27.574219 128.558594 28.109375 128.558594 28.648438 C 128.5625 29.152344 128.5625 29.660156 128.5625 30.167969 C 128.5625 30.351562 128.5625 30.535156 128.5625 30.71875 C 128.566406 31.707031 128.53125 32.679688 128.421875 33.664062 C 128.414062 33.753906 128.402344 33.84375 128.394531 33.9375 C 128.15625 35.9375 127.386719 37.738281 126.207031 39.355469 C 126.148438 39.433594 126.09375 39.515625 126.035156 39.597656 C 124.480469 41.59375 121.910156 42.613281 119.488281 42.984375 C 116.328125 43.347656 113.050781 42.816406 110.484375 40.84375 C 108.25 38.957031 107.035156 36.226562 106.722656 33.347656 C 106.570312 30.246094 106.921875 27.113281 109.046875 24.675781 C 110.671875 22.882812 112.855469 21.59375 115.304688 21.429688 C 115.722656 21.414062 116.140625 21.40625 116.554688 21.402344 C 116.6875 21.402344 116.820312 21.398438 116.957031 21.398438 C 119.09375 21.421875 120.871094 22.183594 122.40625 23.644531 C 122.652344 23.90625 122.652344 23.90625 122.773438 24.152344 C 122.835938 18.628906 122.835938 18.628906 122.898438 12.996094 Z M 114.441406 27.339844 C 114.367188 27.398438 114.292969 27.457031 114.214844 27.519531 C 113.21875 28.398438 112.566406 29.882812 112.457031 31.195312 C 112.445312 31.515625 112.441406 31.835938 112.445312 32.160156 C 112.445312 32.273438 112.445312 32.390625 112.445312 32.507812 C 112.460938 33.324219 112.535156 34.054688 112.851562 34.820312 C 112.910156 34.972656 112.910156 34.972656 112.972656 35.128906 C 113.53125 36.386719 114.398438 37.308594 115.65625 37.871094 C 116.960938 38.34375 118.261719 38.359375 119.570312 37.878906 C 120.910156 37.253906 121.761719 36.292969 122.320312 34.921875 C 122.960938 33.0625 123.015625 31.078125 122.226562 29.25 C 121.496094 27.800781 120.617188 26.960938 119.101562 26.390625 C 117.460938 25.898438 115.757812 26.289062 114.441406 27.339844 Z M 114.441406 27.339844 "/>
<path style=" stroke:none;fill-rule:nonzero;fill:rgb(92.156863%,38.431373%,18.039216%);fill-opacity:1;" d="M 83.6875 21.945312 C 85.507812 21.945312 87.328125 21.945312 89.203125 21.945312 C 89.339844 22.226562 89.339844 22.382812 89.339844 22.691406 C 89.339844 22.796875 89.339844 22.902344 89.339844 23.011719 C 89.339844 23.125 89.339844 23.242188 89.339844 23.359375 C 89.34375 23.484375 89.34375 23.605469 89.34375 23.730469 C 89.34375 23.992188 89.34375 24.257812 89.34375 24.523438 C 89.34375 24.941406 89.347656 25.359375 89.351562 25.78125 C 89.355469 26.972656 89.363281 28.164062 89.363281 29.355469 C 89.367188 30.082031 89.367188 30.8125 89.375 31.539062 C 89.375 31.816406 89.375 32.09375 89.375 32.371094 C 89.375 32.761719 89.378906 33.148438 89.382812 33.539062 C 89.382812 33.652344 89.378906 33.765625 89.378906 33.882812 C 89.394531 35.054688 89.863281 36.058594 90.671875 36.902344 C 91.742188 37.789062 92.800781 38.210938 94.199219 38.105469 C 95.003906 37.984375 95.628906 37.71875 96.308594 37.273438 C 96.472656 37.164062 96.472656 37.164062 96.636719 37.058594 C 97.535156 36.183594 98.019531 35.085938 98.070312 33.835938 C 98.074219 33.617188 98.074219 33.398438 98.074219 33.179688 C 98.074219 33.058594 98.078125 32.9375 98.078125 32.8125 C 98.082031 32.417969 98.082031 32.023438 98.082031 31.628906 C 98.082031 31.351562 98.085938 31.078125 98.089844 30.800781 C 98.09375 30.078125 98.097656 29.355469 98.097656 28.632812 C 98.101562 27.476562 98.109375 26.316406 98.117188 25.15625 C 98.121094 24.75 98.121094 24.34375 98.125 23.9375 C 98.125 23.691406 98.125 23.445312 98.125 23.199219 C 98.128906 23.085938 98.128906 22.972656 98.128906 22.855469 C 98.132812 22.082031 98.132812 22.082031 98.269531 21.945312 C 98.4375 21.933594 98.605469 21.929688 98.777344 21.929688 C 98.882812 21.929688 98.992188 21.929688 99.101562 21.929688 C 99.21875 21.929688 99.335938 21.929688 99.457031 21.929688 C 99.574219 21.929688 99.695312 21.929688 99.816406 21.929688 C 100.070312 21.929688 100.320312 21.929688 100.574219 21.929688 C 100.960938 21.929688 101.351562 21.929688 101.738281 21.929688 C 101.984375 21.929688 102.226562 21.929688 102.472656 21.929688 C 102.589844 21.929688 102.707031 21.929688 102.828125 21.929688 C 102.933594 21.929688 103.042969 21.929688 103.152344 21.929688 C 103.25 21.929688 103.34375 21.929688 103.441406 21.929688 C 103.660156 21.945312 103.660156 21.945312 103.78125 22.070312 C 103.796875 22.234375 103.800781 22.398438 103.800781 22.5625 C 103.800781 22.667969 103.800781 22.773438 103.800781 22.882812 C 103.800781 23.058594 103.800781 23.058594 103.800781 23.238281 C 103.804688 23.359375 103.804688 23.484375 103.804688 23.609375 C 103.804688 24.019531 103.808594 24.425781 103.808594 24.835938 C 103.808594 25.121094 103.808594 25.40625 103.808594 25.691406 C 103.8125 26.289062 103.8125 26.886719 103.8125 27.484375 C 103.8125 28.246094 103.816406 29.007812 103.820312 29.773438 C 103.820312 30.359375 103.820312 30.949219 103.820312 31.539062 C 103.824219 31.820312 103.824219 32.101562 103.824219 32.378906 C 103.839844 35.472656 103.34375 38.171875 101.101562 40.472656 C 99.894531 41.640625 98.324219 42.390625 96.675781 42.667969 C 96.636719 45.296875 96.59375 47.925781 96.554688 50.636719 C 96.273438 50.773438 96.121094 50.773438 95.8125 50.777344 C 95.710938 50.777344 95.609375 50.777344 95.503906 50.777344 C 95.390625 50.777344 95.28125 50.777344 95.167969 50.777344 C 95.054688 50.78125 94.941406 50.78125 94.824219 50.78125 C 94.585938 50.78125 94.34375 50.78125 94.105469 50.78125 C 93.738281 50.78125 93.367188 50.785156 93 50.785156 C 92.769531 50.785156 92.535156 50.785156 92.304688 50.785156 C 92.191406 50.789062 92.082031 50.789062 91.96875 50.789062 C 91.867188 50.789062 91.765625 50.789062 91.660156 50.789062 C 91.566406 50.789062 91.476562 50.789062 91.386719 50.789062 C 91.160156 50.757812 91.160156 50.757812 90.917969 50.511719 C 90.882812 50.191406 90.882812 50.191406 90.878906 49.777344 C 90.875 49.621094 90.875 49.46875 90.871094 49.308594 C 90.867188 49.136719 90.867188 48.96875 90.867188 48.800781 C 90.863281 48.628906 90.863281 48.453125 90.859375 48.28125 C 90.851562 47.828125 90.847656 47.371094 90.84375 46.914062 C 90.839844 46.453125 90.832031 45.988281 90.824219 45.523438 C 90.8125 44.613281 90.804688 43.699219 90.792969 42.789062 C 90.644531 42.742188 90.496094 42.695312 90.34375 42.644531 C 90.144531 42.582031 89.945312 42.515625 89.75 42.453125 C 89.652344 42.421875 89.554688 42.390625 89.453125 42.359375 C 87.339844 41.667969 85.667969 40.152344 84.628906 38.203125 C 83.972656 36.804688 83.667969 35.539062 83.675781 34 C 83.671875 33.871094 83.671875 33.738281 83.671875 33.605469 C 83.675781 33.175781 83.675781 32.746094 83.675781 32.316406 C 83.675781 32.015625 83.675781 31.71875 83.675781 31.417969 C 83.675781 30.632812 83.679688 29.851562 83.679688 29.066406 C 83.679688 28.261719 83.679688 27.460938 83.683594 26.660156 C 83.683594 25.089844 83.683594 23.519531 83.6875 21.945312 Z M 83.6875 21.945312 "/>
<path style=" stroke:none;fill-rule:nonzero;fill:rgb(95.294118%,56.862748%,12.54902%);fill-opacity:1;" d="M 225.453125 22.3125 C 227.273438 22.3125 229.09375 22.3125 230.96875 22.3125 C 231.082031 22.652344 231.105469 22.847656 231.105469 23.195312 C 231.109375 23.296875 231.109375 23.402344 231.109375 23.507812 C 231.109375 23.621094 231.109375 23.738281 231.109375 23.855469 C 231.109375 23.972656 231.109375 24.09375 231.109375 24.21875 C 231.109375 24.480469 231.109375 24.742188 231.113281 25.003906 C 231.113281 25.417969 231.113281 25.832031 231.117188 26.246094 C 231.125 27.425781 231.128906 28.601562 231.128906 29.78125 C 231.132812 30.503906 231.136719 31.222656 231.140625 31.945312 C 231.140625 32.21875 231.144531 32.492188 231.144531 32.765625 C 231.140625 33.152344 231.144531 33.535156 231.148438 33.921875 C 231.148438 34.03125 231.148438 34.144531 231.144531 34.261719 C 231.164062 35.460938 231.660156 36.378906 232.4375 37.273438 C 233.339844 38.128906 234.398438 38.425781 235.625 38.5 C 236.5625 38.449219 237.296875 38.152344 238.074219 37.640625 C 238.238281 37.535156 238.238281 37.535156 238.40625 37.425781 C 239.300781 36.554688 239.785156 35.453125 239.839844 34.203125 C 239.839844 33.984375 239.84375 33.765625 239.839844 33.546875 C 239.84375 33.425781 239.84375 33.304688 239.84375 33.179688 C 239.847656 32.785156 239.847656 32.390625 239.847656 31.996094 C 239.851562 31.71875 239.851562 31.445312 239.855469 31.167969 C 239.859375 30.445312 239.863281 29.726562 239.867188 29.003906 C 239.871094 27.84375 239.878906 26.683594 239.886719 25.523438 C 239.886719 25.117188 239.886719 24.710938 239.890625 24.308594 C 239.890625 24.0625 239.890625 23.8125 239.894531 23.566406 C 239.894531 23.453125 239.894531 23.339844 239.894531 23.222656 C 239.898438 22.449219 239.898438 22.449219 240.035156 22.3125 C 240.203125 22.300781 240.375 22.296875 240.542969 22.296875 C 240.648438 22.296875 240.757812 22.296875 240.867188 22.296875 C 240.984375 22.296875 241.101562 22.296875 241.222656 22.296875 C 241.339844 22.296875 241.460938 22.296875 241.582031 22.296875 C 241.835938 22.296875 242.089844 22.296875 242.339844 22.296875 C 242.730469 22.300781 243.117188 22.296875 243.503906 22.296875 C 243.75 22.296875 243.996094 22.296875 244.238281 22.296875 C 244.355469 22.296875 244.472656 22.296875 244.59375 22.296875 C 244.703125 22.296875 244.808594 22.296875 244.921875 22.296875 C 245.015625 22.296875 245.109375 22.296875 245.207031 22.296875 C 245.425781 22.3125 245.425781 22.3125 245.550781 22.4375 C 245.5625 22.601562 245.566406 22.765625 245.566406 22.929688 C 245.566406 23.035156 245.566406 23.140625 245.570312 23.25 C 245.570312 23.425781 245.570312 23.425781 245.570312 23.605469 C 245.570312 23.726562 245.570312 23.851562 245.570312 23.976562 C 245.574219 24.386719 245.574219 24.796875 245.574219 25.203125 C 245.574219 25.488281 245.574219 25.773438 245.578125 26.058594 C 245.578125 26.65625 245.578125 27.253906 245.578125 27.851562 C 245.578125 28.613281 245.582031 29.378906 245.585938 30.140625 C 245.589844 30.730469 245.589844 31.316406 245.589844 31.90625 C 245.589844 32.1875 245.589844 32.46875 245.59375 32.75 C 245.609375 35.839844 245.109375 38.539062 242.867188 40.839844 C 241.660156 42.007812 240.089844 42.757812 238.441406 43.035156 C 238.402344 45.664062 238.363281 48.292969 238.320312 51.003906 C 238.042969 51.144531 237.886719 51.144531 237.578125 51.144531 C 237.476562 51.144531 237.375 51.144531 237.269531 51.148438 C 237.160156 51.148438 237.046875 51.148438 236.933594 51.148438 C 236.820312 51.148438 236.707031 51.148438 236.589844 51.148438 C 236.351562 51.148438 236.109375 51.148438 235.871094 51.148438 C 235.503906 51.148438 235.136719 51.152344 234.769531 51.152344 C 234.535156 51.15625 234.300781 51.15625 234.070312 51.15625 C 233.960938 51.15625 233.847656 51.15625 233.734375 51.15625 C 233.632812 51.15625 233.53125 51.15625 233.425781 51.15625 C 233.335938 51.15625 233.246094 51.15625 233.152344 51.15625 C 232.929688 51.125 232.929688 51.125 232.683594 50.882812 C 232.648438 50.554688 232.648438 50.554688 232.644531 50.132812 C 232.640625 49.976562 232.640625 49.820312 232.636719 49.65625 C 232.636719 49.484375 232.632812 49.3125 232.632812 49.140625 C 232.628906 48.964844 232.628906 48.789062 232.625 48.613281 C 232.621094 48.152344 232.613281 47.6875 232.609375 47.226562 C 232.605469 46.753906 232.597656 46.285156 232.59375 45.8125 C 232.582031 44.886719 232.570312 43.960938 232.5625 43.035156 C 232.429688 43.015625 232.296875 43 232.160156 42.980469 C 230.144531 42.671875 228.457031 41.367188 227.171875 39.847656 C 225.992188 38.210938 225.433594 36.371094 225.441406 34.367188 C 225.441406 34.238281 225.441406 34.105469 225.441406 33.972656 C 225.441406 33.542969 225.441406 33.113281 225.441406 32.683594 C 225.441406 32.382812 225.441406 32.085938 225.441406 31.789062 C 225.445312 31.003906 225.445312 30.21875 225.445312 29.433594 C 225.449219 28.632812 225.449219 27.828125 225.449219 27.027344 C 225.449219 25.457031 225.453125 23.886719 225.453125 22.3125 Z M 225.453125 22.3125 "/>
<path style=" stroke:none;fill-rule:nonzero;fill:rgb(95.294118%,56.862748%,12.54902%);fill-opacity:1;" d="M 193.597656 22.191406 C 193.730469 22.230469 193.863281 22.273438 194 22.3125 C 196.398438 23.140625 198.375 24.859375 199.519531 27.117188 C 200.328125 28.800781 200.726562 30.5625 200.71875 32.429688 C 200.71875 32.542969 200.71875 32.660156 200.71875 32.777344 C 200.71875 33.148438 200.714844 33.523438 200.714844 33.894531 C 200.714844 34.15625 200.714844 34.414062 200.714844 34.675781 C 200.714844 35.359375 200.714844 36.039062 200.710938 36.722656 C 200.710938 37.542969 200.710938 38.363281 200.710938 39.179688 C 200.707031 40.425781 200.707031 41.667969 200.703125 42.910156 C 198.84375 42.910156 196.984375 42.910156 195.066406 42.910156 C 195.027344 41.898438 194.984375 40.890625 194.945312 39.847656 C 194.734375 40.148438 194.734375 40.148438 194.523438 40.460938 C 193.363281 42.039062 191.835938 43 189.898438 43.347656 C 187.175781 43.65625 184.742188 43.167969 182.570312 41.441406 C 180.386719 39.589844 179.257812 36.855469 178.925781 34.054688 C 178.910156 33.859375 178.902344 33.664062 178.894531 33.472656 C 178.886719 33.351562 178.882812 33.234375 178.878906 33.113281 C 178.808594 29.8125 179.820312 26.976562 182.09375 24.574219 C 184.964844 21.765625 189.824219 21.015625 193.597656 22.191406 Z M 185.96875 28.359375 C 184.773438 29.855469 184.46875 31.730469 184.652344 33.59375 C 184.824219 34.734375 185.207031 35.722656 185.878906 36.660156 C 185.964844 36.789062 186.054688 36.917969 186.144531 37.050781 C 187.242188 38.148438 188.515625 38.597656 190.042969 38.621094 C 191.398438 38.539062 192.605469 38.035156 193.527344 37.023438 C 194.882812 35.316406 195.144531 33.378906 194.945312 31.265625 C 194.675781 29.753906 193.925781 28.441406 192.738281 27.464844 C 190.515625 25.933594 187.761719 26.433594 185.96875 28.359375 Z M 185.96875 28.359375 "/>
<path style=" stroke:none;fill-rule:nonzero;fill:rgb(95.294118%,56.862748%,12.54902%);fill-opacity:1;" d="M 173.542969 23.417969 C 175.8125 25.125 176.726562 27.621094 177.253906 30.308594 C 177.324219 31.027344 177.316406 31.742188 177.316406 32.460938 C 177.316406 32.609375 177.316406 32.761719 177.316406 32.917969 C 177.316406 33.132812 177.316406 33.132812 177.316406 33.355469 C 177.316406 33.484375 177.316406 33.617188 177.316406 33.753906 C 177.300781 34.085938 177.300781 34.085938 177.179688 34.453125 C 172.609375 34.453125 168.039062 34.453125 163.332031 34.453125 C 164.136719 36.058594 164.644531 36.917969 166.304688 37.546875 C 167.523438 37.9375 168.667969 38.027344 169.941406 38.046875 C 170.078125 38.050781 170.214844 38.050781 170.355469 38.054688 C 170.792969 38.0625 171.226562 38.070312 171.664062 38.078125 C 171.960938 38.082031 172.257812 38.085938 172.554688 38.09375 C 173.277344 38.105469 174.003906 38.117188 174.726562 38.128906 C 174.726562 39.707031 174.726562 41.285156 174.726562 42.910156 C 173.808594 42.917969 172.886719 42.925781 171.96875 42.929688 C 171.539062 42.933594 171.113281 42.933594 170.683594 42.941406 C 166.9375 42.976562 163.226562 42.703125 160.386719 39.96875 C 160.222656 39.808594 160.0625 39.644531 159.902344 39.480469 C 159.820312 39.398438 159.738281 39.316406 159.65625 39.234375 C 157.660156 37.136719 157.261719 34.398438 157.292969 31.625 C 157.359375 29.265625 158.160156 27.082031 159.65625 25.257812 C 159.753906 25.128906 159.753906 25.128906 159.855469 24.996094 C 163.003906 21.097656 169.558594 20.757812 173.542969 23.417969 Z M 165.414062 26.972656 C 165.335938 27.011719 165.261719 27.054688 165.179688 27.09375 C 164.078125 27.761719 163.617188 29.035156 163.285156 30.214844 C 163.203125 30.496094 163.203125 30.496094 163.210938 30.652344 C 166 30.652344 168.789062 30.652344 171.664062 30.652344 C 171.511719 29.292969 171.242188 28.234375 170.207031 27.292969 C 168.832031 26.242188 166.929688 26.136719 165.414062 26.972656 Z M 165.414062 26.972656 "/>
<path style=" stroke:none;fill-rule:nonzero;fill:rgb(92.156863%,38.431373%,18.039216%);fill-opacity:1;" d="M 147.15625 22.804688 C 147.691406 23.210938 148.160156 23.675781 148.628906 24.152344 C 148.710938 24.230469 148.792969 24.308594 148.875 24.390625 C 150.503906 26.050781 151.214844 28.871094 151.21875 31.136719 C 151.21875 31.292969 151.21875 31.449219 151.21875 31.609375 C 151.21875 31.773438 151.21875 31.933594 151.21875 32.101562 C 151.21875 32.265625 151.21875 32.429688 151.21875 32.59375 C 151.21875 32.828125 151.21875 32.828125 151.21875 33.066406 C 151.21875 33.210938 151.21875 33.351562 151.21875 33.5 C 151.203125 33.839844 151.203125 33.839844 151.078125 34.085938 C 146.550781 34.125 142.023438 34.164062 137.355469 34.207031 C 138.234375 35.964844 138.871094 36.730469 140.691406 37.367188 C 141.75 37.65625 142.863281 37.660156 143.949219 37.679688 C 144.085938 37.679688 144.21875 37.683594 144.355469 37.6875 C 144.78125 37.695312 145.207031 37.703125 145.632812 37.707031 C 145.925781 37.714844 146.214844 37.71875 146.503906 37.726562 C 147.210938 37.738281 147.921875 37.75 148.628906 37.761719 C 148.628906 39.339844 148.628906 40.917969 148.628906 42.542969 C 147.707031 42.550781 146.789062 42.558594 145.871094 42.5625 C 145.441406 42.566406 145.011719 42.566406 144.585938 42.570312 C 140.746094 42.609375 137.097656 42.269531 134.1875 39.515625 C 132.742188 38.082031 131.761719 36.328125 131.351562 34.328125 C 131.316406 34.171875 131.316406 34.171875 131.285156 34.011719 C 130.898438 31.050781 131.355469 27.800781 133.191406 25.378906 C 133.539062 24.949219 133.90625 24.546875 134.292969 24.152344 C 134.382812 24.058594 134.476562 23.964844 134.570312 23.867188 C 137.691406 20.839844 143.542969 20.453125 147.15625 22.804688 Z M 138.335938 27.464844 C 137.648438 28.320312 137.234375 29.175781 137.234375 30.285156 C 139.984375 30.285156 142.730469 30.285156 145.566406 30.285156 C 145.429688 28.941406 145.144531 27.949219 144.21875 26.972656 C 142.425781 25.535156 139.859375 25.800781 138.335938 27.464844 Z M 138.335938 27.464844 "/>
<path style=" stroke:none;fill-rule:nonzero;fill:rgb(95.294118%,56.862748%,12.54902%);fill-opacity:1;" d="M 210.351562 22.300781 C 210.457031 22.300781 210.5625 22.300781 210.671875 22.300781 C 211.023438 22.300781 211.375 22.300781 211.726562 22.300781 C 211.96875 22.300781 212.214844 22.300781 212.457031 22.300781 C 213.097656 22.304688 213.738281 22.304688 214.378906 22.304688 C 215.148438 22.308594 215.914062 22.308594 216.683594 22.308594 C 217.851562 22.308594 219.019531 22.3125 220.1875 22.3125 C 220.1875 23.890625 220.1875 25.46875 220.1875 27.097656 C 219.503906 27.097656 218.824219 27.101562 218.121094 27.105469 C 217.6875 27.109375 217.257812 27.113281 216.824219 27.117188 C 216.136719 27.121094 215.453125 27.125 214.765625 27.128906 C 214.214844 27.132812 213.660156 27.136719 213.109375 27.140625 C 212.898438 27.144531 212.6875 27.144531 212.476562 27.144531 C 212.179688 27.144531 211.886719 27.148438 211.589844 27.152344 C 211.503906 27.152344 211.414062 27.148438 211.328125 27.148438 C 210.714844 27.164062 210.363281 27.324219 209.894531 27.707031 C 209.679688 28.132812 209.695312 28.59375 209.769531 29.058594 C 210.039062 29.394531 210.246094 29.601562 210.628906 29.792969 C 210.800781 29.804688 210.972656 29.8125 211.144531 29.8125 C 211.25 29.8125 211.359375 29.816406 211.46875 29.816406 C 211.644531 29.816406 211.644531 29.816406 211.820312 29.820312 C 212.070312 29.824219 212.316406 29.824219 212.5625 29.828125 C 212.953125 29.835938 213.34375 29.839844 213.730469 29.84375 C 216.199219 29.863281 218.78125 29.941406 220.675781 31.753906 C 222.125 33.339844 222.257812 35.273438 222.171875 37.328125 C 222.054688 38.839844 221.140625 40.285156 220.0625 41.316406 C 218.6875 42.488281 217.132812 42.933594 215.359375 42.925781 C 215.246094 42.925781 215.128906 42.925781 215.011719 42.925781 C 214.640625 42.925781 214.265625 42.925781 213.890625 42.925781 C 213.632812 42.921875 213.371094 42.921875 213.113281 42.921875 C 212.429688 42.921875 211.746094 42.921875 211.0625 42.921875 C 210.367188 42.917969 209.667969 42.917969 208.972656 42.917969 C 207.605469 42.917969 206.238281 42.914062 204.871094 42.910156 C 204.871094 41.332031 204.871094 39.757812 204.871094 38.128906 C 205.601562 38.125 206.328125 38.121094 207.082031 38.117188 C 207.546875 38.113281 208.011719 38.109375 208.472656 38.105469 C 209.210938 38.097656 209.945312 38.089844 210.679688 38.085938 C 211.273438 38.085938 211.867188 38.078125 212.460938 38.074219 C 212.6875 38.070312 212.914062 38.070312 213.140625 38.070312 C 213.457031 38.066406 213.773438 38.066406 214.09375 38.0625 C 214.230469 38.0625 214.230469 38.0625 214.371094 38.0625 C 215.035156 38.050781 215.667969 37.941406 216.265625 37.640625 C 216.527344 37.164062 216.578125 36.703125 216.511719 36.167969 C 216.242188 35.621094 215.984375 35.363281 215.417969 35.136719 C 214.925781 34.996094 214.425781 35.015625 213.914062 35.019531 C 213.667969 35.015625 213.425781 35.015625 213.179688 35.011719 C 212.796875 35.011719 212.414062 35.011719 212.035156 35.011719 C 209.675781 35.007812 207.257812 34.882812 205.480469 33.101562 C 204.191406 31.566406 203.898438 29.792969 204.011719 27.832031 C 204.265625 26.082031 205.167969 24.660156 206.515625 23.535156 C 207.714844 22.652344 208.875 22.292969 210.351562 22.300781 Z M 210.351562 22.300781 "/>
<path style=" stroke:none;fill-rule:nonzero;fill:rgb(92.156863%,38.431373%,18.039216%);fill-opacity:1;" d="M 76.234375 21.898438 C 76.472656 21.898438 76.472656 21.898438 76.714844 21.902344 C 77.128906 21.902344 77.542969 21.90625 77.957031 21.914062 C 78.382812 21.917969 78.808594 21.921875 79.234375 21.921875 C 80.066406 21.925781 80.898438 21.9375 81.726562 21.945312 C 81.726562 23.523438 81.726562 25.101562 81.726562 26.726562 C 81.363281 26.734375 80.996094 26.738281 80.617188 26.746094 C 80.265625 26.753906 79.910156 26.761719 79.554688 26.765625 C 79.308594 26.773438 79.0625 26.777344 78.816406 26.78125 C 78.460938 26.785156 78.109375 26.792969 77.753906 26.800781 C 77.644531 26.800781 77.535156 26.800781 77.421875 26.804688 C 77.316406 26.804688 77.214844 26.808594 77.109375 26.8125 C 77.019531 26.8125 76.929688 26.816406 76.835938 26.816406 C 76.535156 26.855469 76.34375 26.925781 76.089844 27.097656 C 75.855469 27.476562 75.816406 27.769531 75.8125 28.214844 C 75.808594 28.339844 75.808594 28.464844 75.808594 28.597656 C 75.808594 28.734375 75.808594 28.871094 75.808594 29.015625 C 75.804688 29.234375 75.804688 29.234375 75.804688 29.457031 C 75.800781 29.855469 75.796875 30.257812 75.796875 30.65625 C 75.792969 31.074219 75.792969 31.492188 75.789062 31.910156 C 75.78125 32.703125 75.777344 33.492188 75.773438 34.285156 C 75.769531 35.183594 75.761719 36.085938 75.757812 36.984375 C 75.742188 38.839844 75.734375 40.691406 75.722656 42.542969 C 73.863281 42.542969 72.003906 42.542969 70.085938 42.542969 C 70.078125 40.492188 70.070312 38.4375 70.066406 36.386719 C 70.066406 35.433594 70.0625 34.480469 70.058594 33.527344 C 70.054688 32.695312 70.054688 31.863281 70.050781 31.03125 C 70.050781 30.59375 70.050781 30.152344 70.046875 29.710938 C 70.046875 29.21875 70.046875 28.726562 70.046875 28.234375 C 70.042969 28.089844 70.042969 27.949219 70.042969 27.800781 C 70.046875 26.125 70.445312 24.625 71.59375 23.371094 C 72.894531 22.132812 74.496094 21.867188 76.234375 21.898438 Z M 76.234375 21.898438 "/>
<path style=" stroke:none;fill-rule:nonzero;fill:rgb(18.431373%,18.039216%,18.039216%);fill-opacity:1;" d="M 232.5625 43.035156 C 234.503906 43.035156 236.441406 43.035156 238.441406 43.035156 C 238.402344 45.664062 238.363281 48.292969 238.320312 51.003906 C 238.042969 51.144531 237.886719 51.144531 237.578125 51.144531 C 237.476562 51.144531 237.375 51.144531 237.269531 51.148438 C 237.160156 51.148438 237.046875 51.148438 236.933594 51.148438 C 236.820312 51.148438 236.707031 51.148438 236.589844 51.148438 C 236.351562 51.148438 236.109375 51.148438 235.871094 51.148438 C 235.503906 51.148438 235.136719 51.152344 234.769531 51.152344 C 234.535156 51.15625 234.300781 51.15625 234.070312 51.15625 C 233.960938 51.15625 233.847656 51.15625 233.734375 51.15625 C 233.582031 51.15625 233.582031 51.15625 233.425781 51.15625 C 233.335938 51.15625 233.246094 51.15625 233.152344 51.15625 C 232.929688 51.125 232.929688 51.125 232.683594 50.882812 C 232.648438 50.554688 232.648438 50.554688 232.644531 50.132812 C 232.640625 49.976562 232.640625 49.820312 232.636719 49.65625 C 232.636719 49.484375 232.632812 49.3125 232.632812 49.140625 C 232.628906 48.964844 232.628906 48.789062 232.625 48.613281 C 232.621094 48.152344 232.613281 47.6875 232.609375 47.226562 C 232.605469 46.671875 232.597656 46.117188 232.589844 45.5625 C 232.578125 44.71875 232.570312 43.878906 232.5625 43.035156 Z M 232.5625 43.035156 "/>
<path style=" stroke:none;fill-rule:nonzero;fill:rgb(0%,0%,0%);fill-opacity:1;" d="M 204.570312 47.316406 C 204.71875 47.320312 204.71875 47.320312 204.871094 47.324219 C 205.164062 48.140625 205.371094 48.960938 205.5625 49.804688 C 205.667969 50.296875 205.667969 50.296875 205.851562 50.757812 C 206.171875 49.789062 206.496094 48.816406 206.828125 47.816406 C 207.566406 47.695312 207.566406 47.695312 207.808594 47.816406 C 207.917969 48.058594 207.917969 48.058594 208.023438 48.375 C 208.058594 48.488281 208.097656 48.601562 208.136719 48.71875 C 208.175781 48.835938 208.214844 48.957031 208.253906 49.082031 C 208.3125 49.257812 208.3125 49.257812 208.375 49.4375 C 208.542969 49.949219 208.667969 50.335938 208.667969 50.882812 C 208.75 50.882812 208.828125 50.882812 208.914062 50.882812 C 208.925781 50.769531 208.941406 50.65625 208.953125 50.539062 C 209.046875 49.890625 209.203125 49.257812 209.347656 48.621094 C 209.390625 48.433594 209.390625 48.433594 209.4375 48.242188 C 209.507812 47.9375 209.578125 47.632812 209.648438 47.324219 C 209.890625 47.324219 210.132812 47.324219 210.382812 47.324219 C 210.585938 47.945312 210.410156 48.445312 210.238281 49.050781 C 210.195312 49.203125 210.195312 49.203125 210.152344 49.363281 C 209.605469 51.332031 209.605469 51.332031 209.28125 51.984375 C 208.957031 51.984375 208.632812 51.984375 208.300781 51.984375 C 207.976562 51.011719 207.652344 50.042969 207.320312 49.042969 C 207.003906 49.964844 207.003906 49.964844 206.6875 50.886719 C 206.648438 51 206.605469 51.117188 206.566406 51.234375 C 206.527344 51.351562 206.484375 51.46875 206.445312 51.589844 C 206.339844 51.863281 206.339844 51.863281 206.21875 51.984375 C 205.929688 51.988281 205.644531 51.988281 205.359375 51.984375 C 204.957031 51.160156 204.695312 50.328125 204.472656 49.441406 C 204.4375 49.316406 204.40625 49.191406 204.371094 49.0625 C 204.101562 48.007812 204.101562 48.007812 204.132812 47.449219 C 204.257812 47.324219 204.257812 47.324219 204.570312 47.316406 Z M 204.570312 47.316406 "/>
<path style=" stroke:none;fill-rule:nonzero;fill:rgb(0%,0%,0%);fill-opacity:1;" d="M 171.542969 45.609375 C 171.824219 45.609375 172.109375 45.609375 172.398438 45.609375 C 172.539062 45.894531 172.539062 46.0625 172.546875 46.378906 C 172.546875 46.488281 172.550781 46.597656 172.550781 46.707031 C 172.558594 47.203125 172.5625 47.699219 172.566406 48.195312 C 172.566406 48.457031 172.570312 48.71875 172.574219 48.980469 C 172.582031 49.359375 172.585938 49.734375 172.585938 50.113281 C 172.589844 50.230469 172.589844 50.347656 172.59375 50.46875 C 172.59375 51.03125 172.585938 51.289062 172.234375 51.75 C 171.722656 52.121094 171.324219 52.128906 170.707031 52.136719 C 170.484375 52.144531 170.484375 52.144531 170.261719 52.148438 C 169.605469 52.085938 169.21875 51.863281 168.753906 51.410156 C 168.210938 50.699219 168.183594 49.933594 168.296875 49.082031 C 168.457031 48.292969 168.835938 47.902344 169.457031 47.449219 C 169.855469 47.316406 170.152344 47.308594 170.570312 47.308594 C 170.699219 47.308594 170.828125 47.308594 170.964844 47.308594 C 171.296875 47.324219 171.296875 47.324219 171.542969 47.449219 C 171.542969 46.839844 171.542969 46.234375 171.542969 45.609375 Z M 169.457031 48.550781 C 169.105469 49.128906 169.148438 49.734375 169.214844 50.390625 C 169.410156 50.859375 169.644531 51.105469 170.070312 51.371094 C 170.378906 51.421875 170.378906 51.421875 170.699219 51.402344 C 170.859375 51.398438 170.859375 51.398438 171.023438 51.398438 C 171.300781 51.386719 171.300781 51.386719 171.542969 51.25 C 171.550781 50.765625 171.558594 50.277344 171.566406 49.792969 C 171.566406 49.65625 171.570312 49.515625 171.574219 49.375 C 171.574219 49.242188 171.578125 49.109375 171.578125 48.972656 C 171.578125 48.851562 171.582031 48.730469 171.582031 48.605469 C 171.570312 48.507812 171.554688 48.40625 171.542969 48.304688 C 170.832031 47.832031 170.042969 47.914062 169.457031 48.550781 Z M 169.457031 48.550781 "/>
<path style=" stroke:none;fill-rule:nonzero;fill:rgb(0%,0%,0%);fill-opacity:1;" d="M 211.484375 45.609375 C 211.730469 45.609375 211.972656 45.609375 212.222656 45.609375 C 212.460938 45.847656 212.394531 46.28125 212.414062 46.597656 C 212.421875 46.757812 212.433594 46.914062 212.445312 47.078125 C 212.453125 47.199219 212.457031 47.320312 212.464844 47.449219 C 212.585938 47.40625 212.710938 47.367188 212.835938 47.324219 C 213.515625 47.265625 214.109375 47.238281 214.742188 47.523438 C 215.175781 47.949219 215.386719 48.34375 215.449219 48.949219 C 215.445312 49.160156 215.445312 49.160156 215.441406 49.375 C 215.441406 49.601562 215.441406 49.601562 215.4375 49.835938 C 215.4375 49.996094 215.433594 50.152344 215.429688 50.3125 C 215.425781 50.554688 215.425781 50.554688 215.425781 50.800781 C 215.421875 51.195312 215.414062 51.589844 215.40625 51.984375 C 215.164062 51.988281 214.917969 51.988281 214.671875 51.984375 C 214.460938 51.773438 214.527344 51.484375 214.519531 51.195312 C 214.515625 51.0625 214.511719 50.925781 214.507812 50.785156 C 214.5 50.5 214.492188 50.210938 214.484375 49.921875 C 214.480469 49.71875 214.480469 49.71875 214.472656 49.511719 C 214.46875 49.386719 214.46875 49.261719 214.464844 49.132812 C 214.425781 48.792969 214.367188 48.589844 214.183594 48.304688 C 213.894531 48.164062 213.710938 48.164062 213.394531 48.160156 C 213.296875 48.160156 213.203125 48.15625 213.101562 48.15625 C 212.796875 48.167969 212.796875 48.167969 212.464844 48.429688 C 212.402344 48.796875 212.402344 48.796875 212.402344 49.230469 C 212.398438 49.390625 212.394531 49.550781 212.390625 49.714844 C 212.386719 49.882812 212.386719 50.054688 212.382812 50.222656 C 212.378906 50.390625 212.375 50.5625 212.371094 50.734375 C 212.359375 51.148438 212.351562 51.566406 212.34375 51.984375 C 212.0625 51.984375 211.777344 51.984375 211.484375 51.984375 C 211.484375 49.878906 211.484375 47.777344 211.484375 45.609375 Z M 211.484375 45.609375 "/>
<path style=" stroke:none;fill-rule:nonzero;fill:rgb(0%,0%,0%);fill-opacity:1;" d="M 228.410156 47.40625 C 228.96875 47.6875 229.304688 48.089844 229.496094 48.675781 C 229.535156 49.011719 229.523438 49.3125 229.496094 49.65625 C 228.96875 49.847656 228.46875 49.960938 227.914062 50.039062 C 227.769531 50.058594 227.628906 50.078125 227.480469 50.101562 C 227.046875 50.144531 226.625 50.152344 226.191406 50.144531 C 226.410156 50.644531 226.574219 50.96875 227.046875 51.25 C 227.761719 51.351562 228.464844 51.292969 229.128906 51.003906 C 229.210938 51.164062 229.292969 51.328125 229.375 51.496094 C 228.984375 51.910156 228.75 52.085938 228.167969 52.136719 C 227.117188 52.160156 226.425781 52.074219 225.652344 51.339844 C 225.164062 50.511719 225.144531 49.722656 225.332031 48.796875 C 225.5625 48.148438 225.894531 47.84375 226.433594 47.449219 C 227.0625 47.238281 227.773438 47.210938 228.410156 47.40625 Z M 226.3125 48.675781 C 226.273438 48.957031 226.230469 49.242188 226.191406 49.53125 C 226.957031 49.453125 227.726562 49.371094 228.519531 49.289062 C 228.699219 48.796875 228.699219 48.796875 228.410156 48.398438 C 228.121094 48.078125 227.90625 48 227.476562 47.976562 C 226.90625 48.019531 226.640625 48.191406 226.3125 48.675781 Z M 226.3125 48.675781 "/>
<path style=" stroke:none;fill-rule:nonzero;fill:rgb(0%,0%,0%);fill-opacity:1;" d="M 219.710938 47.40625 C 220.269531 47.6875 220.605469 48.089844 220.796875 48.675781 C 220.835938 49.011719 220.824219 49.3125 220.796875 49.65625 C 220.269531 49.847656 219.769531 49.960938 219.214844 50.039062 C 219.070312 50.058594 218.929688 50.078125 218.78125 50.101562 C 218.347656 50.144531 217.925781 50.152344 217.488281 50.144531 C 217.710938 50.644531 217.875 50.96875 218.347656 51.25 C 219.0625 51.351562 219.765625 51.292969 220.429688 51.003906 C 220.511719 51.164062 220.59375 51.328125 220.675781 51.496094 C 220.285156 51.910156 220.050781 52.085938 219.46875 52.136719 C 218.417969 52.160156 217.726562 52.074219 216.953125 51.339844 C 216.464844 50.511719 216.445312 49.722656 216.632812 48.796875 C 216.863281 48.148438 217.195312 47.84375 217.734375 47.449219 C 218.363281 47.238281 219.074219 47.210938 219.710938 47.40625 Z M 217.613281 48.675781 C 217.570312 48.957031 217.53125 49.242188 217.488281 49.53125 C 218.257812 49.453125 219.027344 49.371094 219.816406 49.289062 C 220 48.796875 220 48.796875 219.710938 48.398438 C 219.421875 48.078125 219.203125 48 218.777344 47.976562 C 218.207031 48.019531 217.941406 48.191406 217.613281 48.675781 Z M 217.613281 48.675781 "/>
<path style=" stroke:none;fill-rule:nonzero;fill:rgb(0%,0%,0%);fill-opacity:1;" d="M 193.613281 47.40625 C 194.167969 47.6875 194.507812 48.089844 194.699219 48.675781 C 194.734375 49.011719 194.722656 49.3125 194.699219 49.65625 C 194.171875 49.847656 193.667969 49.960938 193.113281 50.039062 C 192.972656 50.058594 192.828125 50.078125 192.683594 50.101562 C 192.25 50.144531 191.828125 50.152344 191.390625 50.144531 C 191.613281 50.644531 191.777344 50.96875 192.25 51.25 C 192.964844 51.351562 193.664062 51.292969 194.332031 51.003906 C 194.414062 51.164062 194.492188 51.328125 194.578125 51.496094 C 194.1875 51.910156 193.953125 52.085938 193.371094 52.136719 C 192.320312 52.160156 191.628906 52.074219 190.855469 51.339844 C 190.367188 50.511719 190.347656 49.722656 190.535156 48.796875 C 190.765625 48.148438 191.09375 47.84375 191.636719 47.449219 C 192.265625 47.238281 192.976562 47.210938 193.613281 47.40625 Z M 191.515625 48.675781 C 191.472656 48.957031 191.433594 49.242188 191.390625 49.53125 C 192.160156 49.453125 192.929688 49.371094 193.71875 49.289062 C 193.902344 48.796875 193.902344 48.796875 193.613281 48.398438 C 193.320312 48.078125 193.105469 48 192.679688 47.976562 C 192.105469 48.019531 191.84375 48.191406 191.515625 48.675781 Z M 191.515625 48.675781 "/>
<path style=" stroke:none;fill-rule:nonzero;fill:rgb(0%,0%,0%);fill-opacity:1;" d="M 183.8125 47.40625 C 184.367188 47.6875 184.703125 48.089844 184.898438 48.675781 C 184.933594 49.011719 184.921875 49.3125 184.898438 49.65625 C 184.371094 49.847656 183.867188 49.960938 183.3125 50.039062 C 183.167969 50.058594 183.027344 50.078125 182.878906 50.101562 C 182.445312 50.144531 182.023438 50.152344 181.589844 50.144531 C 181.808594 50.644531 181.972656 50.96875 182.445312 51.25 C 183.164062 51.351562 183.863281 51.292969 184.53125 51.003906 C 184.609375 51.164062 184.691406 51.328125 184.773438 51.496094 C 184.382812 51.910156 184.148438 52.085938 183.566406 52.136719 C 182.519531 52.160156 181.824219 52.074219 181.054688 51.339844 C 180.5625 50.511719 180.546875 49.722656 180.730469 48.796875 C 180.960938 48.148438 181.292969 47.84375 181.835938 47.449219 C 182.460938 47.238281 183.171875 47.210938 183.8125 47.40625 Z M 181.710938 48.675781 C 181.671875 48.957031 181.628906 49.242188 181.589844 49.53125 C 182.355469 49.453125 183.125 49.371094 183.917969 49.289062 C 184.101562 48.796875 184.101562 48.796875 183.808594 48.398438 C 183.519531 48.078125 183.304688 48 182.875 47.976562 C 182.304688 48.019531 182.039062 48.191406 181.710938 48.675781 Z M 181.710938 48.675781 "/>
<path style=" stroke:none;fill-rule:nonzero;fill:rgb(0%,0%,0%);fill-opacity:1;" d="M 176.828125 47.40625 C 177.382812 47.6875 177.71875 48.089844 177.914062 48.675781 C 177.949219 49.011719 177.9375 49.3125 177.914062 49.65625 C 177.386719 49.847656 176.882812 49.960938 176.328125 50.039062 C 176.183594 50.058594 176.042969 50.078125 175.894531 50.101562 C 175.460938 50.144531 175.039062 50.152344 174.605469 50.144531 C 174.824219 50.644531 174.988281 50.96875 175.460938 51.25 C 176.179688 51.351562 176.878906 51.292969 177.546875 51.003906 C 177.625 51.164062 177.707031 51.328125 177.789062 51.496094 C 177.398438 51.910156 177.164062 52.085938 176.582031 52.136719 C 175.535156 52.160156 174.839844 52.074219 174.070312 51.339844 C 173.578125 50.511719 173.5625 49.722656 173.746094 48.796875 C 173.980469 48.148438 174.308594 47.84375 174.851562 47.449219 C 175.476562 47.238281 176.1875 47.210938 176.828125 47.40625 Z M 174.726562 48.675781 C 174.6875 48.957031 174.644531 49.242188 174.605469 49.53125 C 175.371094 49.453125 176.140625 49.371094 176.933594 49.289062 C 177.117188 48.796875 177.117188 48.796875 176.824219 48.398438 C 176.535156 48.078125 176.320312 48 175.890625 47.976562 C 175.320312 48.019531 175.054688 48.191406 174.726562 48.675781 Z M 174.726562 48.675781 "/>
<path style=" stroke:none;fill-rule:nonzero;fill:rgb(0%,0%,0%);fill-opacity:1;" d="M 199.234375 47.324219 C 199.515625 47.289062 199.515625 47.289062 199.847656 47.324219 C 200.128906 47.730469 200.3125 48.15625 200.492188 48.617188 C 200.5625 48.804688 200.5625 48.804688 200.636719 48.996094 C 200.710938 49.1875 200.710938 49.1875 200.789062 49.386719 C 200.839844 49.519531 200.890625 49.652344 200.941406 49.785156 C 201.066406 50.109375 201.191406 50.433594 201.316406 50.757812 C 201.75 49.789062 202.066406 48.839844 202.320312 47.8125 C 202.417969 47.449219 202.417969 47.449219 202.542969 47.324219 C 202.785156 47.320312 203.03125 47.320312 203.277344 47.324219 C 203.320312 48.136719 203.175781 48.769531 202.910156 49.53125 C 202.871094 49.644531 202.832031 49.757812 202.792969 49.871094 C 201.683594 53.023438 201.683594 53.023438 200.582031 53.824219 C 200.160156 53.886719 200.160156 53.886719 199.847656 53.824219 C 199.753906 53.617188 199.753906 53.617188 199.722656 53.332031 C 199.917969 53.039062 199.917969 53.039062 200.191406 52.726562 C 200.539062 52.328125 200.777344 52 200.949219 51.496094 C 200.828125 51.453125 200.707031 51.414062 200.582031 51.371094 C 200.425781 51.097656 200.292969 50.835938 200.167969 50.550781 C 200.128906 50.46875 200.09375 50.386719 200.054688 50.304688 C 199.070312 48.082031 199.070312 48.082031 199.15625 47.523438 C 199.183594 47.457031 199.207031 47.394531 199.234375 47.324219 Z M 199.234375 47.324219 "/>
<path style=" stroke:none;fill-rule:nonzero;fill:rgb(0%,0%,0%);fill-opacity:1;" d="M 163.578125 47.324219 C 163.859375 47.289062 163.859375 47.289062 164.191406 47.324219 C 164.472656 47.730469 164.65625 48.15625 164.835938 48.617188 C 164.90625 48.804688 164.90625 48.804688 164.980469 48.996094 C 165.054688 49.1875 165.054688 49.1875 165.132812 49.386719 C 165.183594 49.519531 165.234375 49.652344 165.285156 49.785156 C 165.410156 50.109375 165.535156 50.433594 165.660156 50.757812 C 166.09375 49.789062 166.410156 48.839844 166.664062 47.8125 C 166.761719 47.449219 166.761719 47.449219 166.886719 47.324219 C 167.128906 47.320312 167.375 47.320312 167.621094 47.324219 C 167.664062 48.136719 167.519531 48.769531 167.253906 49.53125 C 167.214844 49.644531 167.175781 49.757812 167.136719 49.871094 C 166.027344 53.023438 166.027344 53.023438 164.925781 53.824219 C 164.503906 53.886719 164.503906 53.886719 164.191406 53.824219 C 164.097656 53.617188 164.097656 53.617188 164.066406 53.332031 C 164.261719 53.039062 164.261719 53.039062 164.535156 52.726562 C 164.882812 52.328125 165.121094 52 165.292969 51.496094 C 165.171875 51.453125 165.050781 51.414062 164.925781 51.371094 C 164.769531 51.097656 164.636719 50.835938 164.511719 50.550781 C 164.472656 50.46875 164.4375 50.386719 164.398438 50.304688 C 163.414062 48.082031 163.414062 48.082031 163.5 47.523438 C 163.527344 47.457031 163.550781 47.394531 163.578125 47.324219 Z M 163.578125 47.324219 "/>
<path style=" stroke:none;fill-rule:nonzero;fill:rgb(0%,0%,0%);fill-opacity:1;" d="M 185.632812 47.324219 C 185.914062 47.289062 185.914062 47.289062 186.246094 47.324219 C 186.53125 47.730469 186.703125 48.144531 186.859375 48.609375 C 186.902344 48.734375 186.945312 48.859375 186.988281 48.988281 C 187.03125 49.117188 187.074219 49.246094 187.117188 49.378906 C 187.203125 49.636719 187.292969 49.894531 187.378906 50.152344 C 187.417969 50.265625 187.457031 50.378906 187.496094 50.496094 C 187.570312 50.753906 187.570312 50.753906 187.714844 50.882812 C 188.121094 49.707031 188.523438 48.535156 188.941406 47.324219 C 189.183594 47.324219 189.425781 47.324219 189.675781 47.324219 C 189.8125 47.734375 189.785156 47.96875 189.648438 48.371094 C 189.613281 48.476562 189.578125 48.585938 189.542969 48.695312 C 189.503906 48.804688 189.464844 48.917969 189.421875 49.035156 C 189.382812 49.148438 189.34375 49.265625 189.304688 49.382812 C 188.996094 50.277344 188.632812 51.136719 188.207031 51.984375 C 187.882812 51.984375 187.558594 51.984375 187.226562 51.984375 C 186.707031 51.054688 186.316406 50.097656 185.945312 49.101562 C 185.902344 48.984375 185.855469 48.867188 185.808594 48.742188 C 185.75 48.574219 185.75 48.574219 185.6875 48.402344 C 185.648438 48.300781 185.613281 48.199219 185.574219 48.097656 C 185.503906 47.789062 185.53125 47.621094 185.632812 47.324219 Z M 185.632812 47.324219 "/>
<path style=" stroke:none;fill-rule:nonzero;fill:rgb(0%,0%,0%);fill-opacity:1;" d="M 224.71875 47.449219 C 224.71875 47.652344 224.71875 47.851562 224.71875 48.0625 C 224.566406 48.074219 224.566406 48.074219 224.410156 48.082031 C 224.210938 48.097656 224.210938 48.097656 224.007812 48.113281 C 223.875 48.125 223.742188 48.136719 223.605469 48.144531 C 223.242188 48.171875 223.242188 48.171875 222.882812 48.304688 C 222.839844 49.519531 222.800781 50.734375 222.757812 51.984375 C 222.476562 51.984375 222.191406 51.984375 221.902344 51.984375 C 221.621094 51.425781 221.75 50.65625 221.746094 50.046875 C 221.746094 49.886719 221.742188 49.730469 221.742188 49.570312 C 221.738281 49.417969 221.738281 49.265625 221.738281 49.109375 C 221.738281 48.96875 221.734375 48.832031 221.734375 48.6875 C 221.785156 48.261719 221.890625 48.035156 222.144531 47.695312 C 222.847656 47.261719 223.957031 47.066406 224.71875 47.449219 Z M 224.71875 47.449219 "/>
<path style=" stroke:none;fill-rule:nonzero;fill:rgb(0%,0%,0%);fill-opacity:1;" d="M 198.621094 47.449219 C 198.621094 47.652344 198.621094 47.851562 198.621094 48.0625 C 198.46875 48.074219 198.46875 48.074219 198.3125 48.082031 C 198.113281 48.097656 198.113281 48.097656 197.910156 48.113281 C 197.777344 48.125 197.644531 48.136719 197.507812 48.144531 C 197.144531 48.171875 197.144531 48.171875 196.78125 48.304688 C 196.742188 49.519531 196.703125 50.734375 196.660156 51.984375 C 196.378906 51.984375 196.09375 51.984375 195.800781 51.984375 C 195.523438 51.425781 195.652344 50.65625 195.648438 50.046875 C 195.648438 49.886719 195.644531 49.730469 195.640625 49.570312 C 195.640625 49.417969 195.640625 49.265625 195.640625 49.109375 C 195.636719 48.96875 195.636719 48.832031 195.636719 48.6875 C 195.683594 48.261719 195.789062 48.035156 196.046875 47.695312 C 196.75 47.261719 197.855469 47.066406 198.621094 47.449219 Z M 198.621094 47.449219 "/>
<path style=" stroke:none;fill-rule:nonzero;fill:rgb(0%,0%,0%);fill-opacity:1;" d="M 162.964844 47.449219 C 162.964844 47.652344 162.964844 47.851562 162.964844 48.0625 C 162.8125 48.074219 162.8125 48.074219 162.65625 48.082031 C 162.457031 48.097656 162.457031 48.097656 162.253906 48.113281 C 162.121094 48.125 161.988281 48.136719 161.851562 48.144531 C 161.488281 48.171875 161.488281 48.171875 161.125 48.304688 C 161.085938 49.519531 161.046875 50.734375 161.003906 51.984375 C 160.722656 51.984375 160.4375 51.984375 160.144531 51.984375 C 159.867188 51.425781 159.996094 50.65625 159.992188 50.046875 C 159.992188 49.886719 159.988281 49.730469 159.984375 49.570312 C 159.984375 49.417969 159.984375 49.265625 159.984375 49.109375 C 159.980469 48.96875 159.980469 48.832031 159.980469 48.6875 C 160.027344 48.261719 160.132812 48.035156 160.390625 47.695312 C 161.09375 47.261719 162.199219 47.066406 162.964844 47.449219 Z M 162.964844 47.449219 "/>
</g>
</svg>
